# xmcd
#
# Track frame offsets:
#	150
#	28113
#	49983
#	90669
#	102788
#	125257
#	146122
#	180683
#	204555
#	245897
#	279518
#
# Disc length: 4186 seconds
#
# Revision: 1
# Processed by: cddbd v1.5.2PL0 Copyright (c) Steve Scherf et al.
# Submitted via: audiograbber 1.83.01
#
DISCID=a310580b
DTITLE=Grateful Dead - 82-08-08 Alpine Valley Music Theatre, East Troy WI
DYEAR=1900
DGENRE=
TTITLE0=Alabama Getaway
TTITLE1=Promised Land
TTITLE2=They Love Each Other
TTITLE3=Mama Tried
TTITLE4=Mexicali Blues
TTITLE5=Loser
TTITLE6=Little Red Rooster
TTITLE7=Brown-Eyed Women
TTITLE8=Looks Like Rain
TTITLE9=Peggy-O
TTITLE10=Samson and Delilah
EXTD=
EXTT0=
EXTT1=
EXTT2=
EXTT3=
EXTT4=
EXTT5=
EXTT6=
EXTT7=
EXTT8=
EXTT9=
EXTT10=
PLAYORDER=
